{
	"asset":{
		"generator":"Khronos glTF Blender I/O v4.2.69",
		"version":"2.0"
	},
	"scene":0,
	"scenes":[
		{
			"name":"Scene",
			"nodes":[
				0,
				8
			]
		}
	],
	"nodes":[
		{
			"mesh":0,
			"name":"Cylinder",
			"rotation":[
				0.7071068286895752,
				0,
				0,
				0.7071067690849304
			],
			"scale":[
				0.49964070320129395,
				0.49964070320129395,
				0.49964070320129395
			]
		},
		{
			"name":"Bone",
			"rotation":[
				0.01238328032195568,
				1.1920019460376352e-07,
				1.476196165306476e-09,
				0.9999233484268188
			],
			"scale":[
				1,
				1.0000001192092896,
				1
			],
			"translation":[
				0,
				0.5772861838340759,
				0.009670697152614594
			]
		},
		{
			"name":"Bone.003",
			"rotation":[
				-1.3577409196940948e-09,
				5.684341886080802e-14,
				4.605254183234113e-15,
				1
			],
			"translation":[
				-2.6467965257123867e-14,
				0.36439022421836853,
				-6.849509404105447e-09
			]
		},
		{
			"name":"Bone.006",
			"rotation":[
				0.14474253356456757,
				0.020180201157927513,
				0.19474519789218903,
				0.9699054956436157
			],
			"scale":[
				1,
				1.0000001192092896,
				0.9999999403953552
			],
			"translation":[
				-8.847564458847046e-09,
				0.9406447410583496,
				-1.1175870895385742e-08
			]
		},
		{
			"children":[
				3
			],
			"name":"Bone.005",
			"rotation":[
				0.41976359486579895,
				0.5663505792617798,
				-0.5321484208106995,
				0.46889621019363403
			],
			"scale":[
				0.9999997615814209,
				0.9999998211860657,
				0.9999998807907104
			],
			"translation":[
				-2.6467965257123867e-14,
				0.36439022421836853,
				-6.849509404105447e-09
			]
		},
		{
			"name":"Bone.008",
			"rotation":[
				0.2563566565513611,
				0.03213564306497574,
				0.11978895217180252,
				0.9585922956466675
			],
			"scale":[
				1,
				0.9999998807907104,
				0.9999999403953552
			],
			"translation":[
				4.470348358154297e-08,
				0.9419702291488647,
				-1.3969838619232178e-08
			]
		},
		{
			"children":[
				5
			],
			"name":"Bone.007",
			"rotation":[
				-0.03890011087059975,
				-0.1657000184059143,
				0.6757113337516785,
				0.7172479033470154
			],
			"scale":[
				1,
				1.0000001192092896,
				1.0000001192092896
			],
			"translation":[
				-2.6467965257123867e-14,
				0.36439022421836853,
				-6.849509404105447e-09
			]
		},
		{
			"children":[
				2,
				4,
				6
			],
			"name":"Bone.002",
			"rotation":[
				1.6250600083367317e-06,
				0.013972105458378792,
				0.9999023675918579,
				2.2707787650233513e-08
			],
			"scale":[
				1,
				1.0000001192092896,
				1.0000001192092896
			],
			"translation":[
				0,
				0.5772861838340759,
				0.009670697152614594
			]
		},
		{
			"children":[
				1,
				7
			],
			"name":"Armature",
			"rotation":[
				-0.7042939066886902,
				0,
				0,
				0.7099085450172424
			],
			"scale":[
				-6.244468688964844,
				-15.371357917785645,
				-4.366548538208008
			],
			"translation":[
				0,
				0.43376684188842773,
				2.140955924987793
			]
		}
	],
	"materials":[
		{
			"doubleSided":true,
			"name":"Material.001",
			"pbrMetallicRoughness":{
				"metallicFactor":0,
				"roughnessFactor":0.5
			}
		}
	],
	"meshes":[
		{
			"name":"Cylinder.001",
			"primitives":[
				{
					"attributes":{
						"POSITION":0,
						"NORMAL":1,
						"TEXCOORD_0":2
					},
					"indices":3,
					"material":0
				}
			]
		}
	],
	"skins":[
		{
			"inverseBindMatrices":4,
			"joints":[
				1,
				7,
				2,
				4,
				3,
				6,
				5
			],
			"name":"Armature"
		}
	],
	"accessors":[
		{
			"bufferView":0,
			"componentType":5126,
			"count":608,
			"max":[
				34.18031311035156,
				38.9593391418457,
				3.3953704833984375
			],
			"min":[
				-34.18031311035156,
				-2.440056800842285,
				-4.474188327789307
			],
			"type":"VEC3"
		},
		{
			"bufferView":1,
			"componentType":5126,
			"count":608,
			"type":"VEC3"
		},
		{
			"bufferView":2,
			"componentType":5126,
			"count":608,
			"type":"VEC2"
		},
		{
			"bufferView":3,
			"componentType":5123,
			"count":996,
			"type":"SCALAR"
		},
		{
			"bufferView":4,
			"componentType":5126,
			"count":7,
			"type":"MAT4"
		}
	],
	"bufferViews":[
		{
			"buffer":0,
			"byteLength":7296,
			"byteOffset":0,
			"target":34962
		},
		{
			"buffer":0,
			"byteLength":7296,
			"byteOffset":7296,
			"target":34962
		},
		{
			"buffer":0,
			"byteLength":4864,
			"byteOffset":14592,
			"target":34962
		},
		{
			"buffer":0,
			"byteLength":1992,
			"byteOffset":19456,
			"target":34963
		},
		{
			"buffer":0,
			"byteLength":448,
			"byteOffset":21448
		}
	],
	"buffers":[
		{
			"byteLength":21896,
			"uri":"bird-6b8125e9312e616fb17117d92e9dea3e.bin"
		}
	]
}
